<svg data-v-423bf9ae="" xmlns="http://www.w3.org/2000/svg" viewBox="0 0 367 90" class="iconLeft"><!----><!----><!----><g data-v-423bf9ae="" id="1d2e1b67-e588-4906-9838-679a27b857a6" fill="#000000" transform="matrix(5.612721889848748,0,0,5.612721889848748,169.80994153624468,-1.5575315116192954)"><path d="M3.99 4.19L3.99 4.19Q2.79 4.19 2.79 5.49L2.79 5.49L2.79 6.13L4.94 6.13L4.94 7.24L2.81 7.24L2.81 13.55L1.47 13.55L1.47 7.24L0.21 7.24L0.21 6.13L1.47 6.13L1.47 5.47L1.47 5.47Q1.47 4.37 2.11 3.72L2.11 3.72L2.11 3.72Q2.76 3.08 3.92 3.08L3.92 3.08L3.92 3.08Q4.37 3.08 4.76 3.19L4.76 3.19L4.76 3.19Q5.15 3.30 5.43 3.51L5.43 3.51L5.03 4.54L5.03 4.54Q4.56 4.19 3.99 4.19L3.99 4.19ZM9.39 13.64L9.39 13.64Q8.29 13.64 7.41 13.15L7.41 13.15L7.41 13.15Q6.52 12.66 6.03 11.79L6.03 11.79L6.03 11.79Q5.53 10.93 5.53 9.84L5.53 9.84L5.53 9.84Q5.53 8.75 6.03 7.89L6.03 7.89L6.03 7.89Q6.52 7.03 7.41 6.54L7.41 6.54L7.41 6.54Q8.29 6.06 9.39 6.06L9.39 6.06L9.39 6.06Q10.50 6.06 11.38 6.54L11.38 6.54L11.38 6.54Q12.25 7.03 12.75 7.89L12.75 7.89L12.75 7.89Q13.24 8.75 13.24 9.84L13.24 9.84L13.24 9.84Q13.24 10.93 12.75 11.79L12.75 11.79L12.75 11.79Q12.25 12.66 11.38 13.15L11.38 13.15L11.38 13.15Q10.50 13.64 9.39 13.64L9.39 13.64ZM9.39 12.46L9.39 12.46Q10.11 12.46 10.68 12.13L10.68 12.13L10.68 12.13Q11.24 11.80 11.56 11.21L11.56 11.21L11.56 11.21Q11.89 10.61 11.89 9.84L11.89 9.84L11.89 9.84Q11.89 9.07 11.56 8.48L11.56 8.48L11.56 8.48Q11.24 7.88 10.68 7.56L10.68 7.56L10.68 7.56Q10.11 7.24 9.39 7.24L9.39 7.24L9.39 7.24Q8.68 7.24 8.11 7.56L8.11 7.56L8.11 7.56Q7.55 7.88 7.22 8.48L7.22 8.48L7.22 8.48Q6.89 9.07 6.89 9.84L6.89 9.84L6.89 9.84Q6.89 10.61 7.22 11.21L7.22 11.21L7.22 11.21Q7.55 11.80 8.11 12.13L8.11 12.13L8.11 12.13Q8.68 12.46 9.39 12.46L9.39 12.46ZM18.28 13.64L18.28 13.64Q17.18 13.64 16.30 13.15L16.30 13.15L16.30 13.15Q15.41 12.66 14.92 11.79L14.92 11.79L14.92 11.79Q14.42 10.93 14.42 9.84L14.42 9.84L14.42 9.84Q14.42 8.75 14.92 7.89L14.92 7.89L14.92 7.89Q15.41 7.03 16.30 6.54L16.30 6.54L16.30 6.54Q17.18 6.06 18.28 6.06L18.28 6.06L18.28 6.06Q19.39 6.06 20.27 6.54L20.27 6.54L20.27 6.54Q21.14 7.03 21.64 7.89L21.64 7.89L21.64 7.89Q22.13 8.75 22.13 9.84L22.13 9.84L22.13 9.84Q22.13 10.93 21.64 11.79L21.64 11.79L21.64 11.79Q21.14 12.66 20.27 13.15L20.27 13.15L20.27 13.15Q19.39 13.64 18.28 13.64L18.28 13.64ZM18.28 12.46L18.28 12.46Q19.00 12.46 19.57 12.13L19.57 12.13L19.57 12.13Q20.13 11.80 20.45 11.21L20.45 11.21L20.45 11.21Q20.78 10.61 20.78 9.84L20.78 9.84L20.78 9.84Q20.78 9.07 20.45 8.48L20.45 8.48L20.45 8.48Q20.13 7.88 19.57 7.56L19.57 7.56L19.57 7.56Q19.00 7.24 18.28 7.24L18.28 7.24L18.28 7.24Q17.57 7.24 17.00 7.56L17.00 7.56L17.00 7.56Q16.44 7.88 16.11 8.48L16.11 8.48L16.11 8.48Q15.78 9.07 15.78 9.84L15.78 9.84L15.78 9.84Q15.78 10.61 16.11 11.21L16.11 11.21L16.11 11.21Q16.44 11.80 17.00 12.13L17.00 12.13L17.00 12.13Q17.57 12.46 18.28 12.46L18.28 12.46ZM29.65 3.16L31.00 3.16L31.00 13.55L29.71 13.55L29.71 12.38L29.71 12.38Q29.26 12.99 28.57 13.31L28.57 13.31L28.57 13.31Q27.89 13.64 27.06 13.64L27.06 13.64L27.06 13.64Q25.98 13.64 25.13 13.16L25.13 13.16L25.13 13.16Q24.28 12.68 23.79 11.82L23.79 11.82L23.79 11.82Q23.31 10.96 23.31 9.84L23.31 9.84L23.31 9.84Q23.31 8.72 23.79 7.87L23.79 7.87L23.79 7.87Q24.28 7.01 25.13 6.54L25.13 6.54L25.13 6.54Q25.98 6.06 27.06 6.06L27.06 6.06L27.06 6.06Q27.86 6.06 28.53 6.36L28.53 6.36L28.53 6.36Q29.20 6.66 29.65 7.25L29.65 7.25L29.65 3.16ZM27.17 12.46L27.17 12.46Q27.87 12.46 28.45 12.13L28.45 12.13L28.45 12.13Q29.02 11.80 29.34 11.21L29.34 11.21L29.34 11.21Q29.67 10.61 29.67 9.84L29.67 9.84L29.67 9.84Q29.67 9.07 29.34 8.48L29.34 8.48L29.34 8.48Q29.02 7.88 28.45 7.56L28.45 7.56L28.45 7.56Q27.87 7.24 27.17 7.24L27.17 7.24L27.17 7.24Q26.46 7.24 25.89 7.56L25.89 7.56L25.89 7.56Q25.33 7.88 25.00 8.48L25.00 8.48L25.00 8.48Q24.67 9.07 24.67 9.84L24.67 9.84L24.67 9.84Q24.67 10.61 25.00 11.21L25.00 11.21L25.00 11.21Q25.33 11.80 25.89 12.13L25.89 12.13L25.89 12.13Q26.46 12.46 27.17 12.46L27.17 12.46ZM33.54 13.55L33.54 6.13L34.89 6.13L34.89 13.55L33.54 13.55ZM34.22 4.70L34.22 4.70Q33.82 4.70 33.57 4.45L33.57 4.45L33.57 4.45Q33.31 4.20 33.31 3.84L33.31 3.84L33.31 3.84Q33.31 3.47 33.57 3.21L33.57 3.21L33.57 3.21Q33.82 2.95 34.22 2.95L34.22 2.95L34.22 2.95Q34.61 2.95 34.87 3.20L34.87 3.20L34.87 3.20Q35.13 3.44 35.13 3.81L35.13 3.81L35.13 3.81Q35.13 4.19 34.87 4.45L34.87 4.45L34.87 4.45Q34.61 4.70 34.22 4.70L34.22 4.70Z"></path></g><defs data-v-423bf9ae=""><linearGradient data-v-423bf9ae="" gradientTransform="rotate(25)" id="1eb7e53c-1f45-4222-8d43-39b4f2c56e5f" x1="0%" y1="0%" x2="100%" y2="0%"><stop data-v-423bf9ae="" offset="0%" style="stop-color: rgb(4, 24, 4); stop-opacity: 1;"></stop><stop data-v-423bf9ae="" offset="100%" style="stop-opacity: 1;"></stop></linearGradient></defs><g data-v-423bf9ae="" id="cb013001-1d03-4666-aec1-333c844fe623" transform="matrix(1.654350929987593,0,0,1.654350929987593,-7.765991194895406,-40.095718903964524)" stroke="none" fill="url(#1eb7e53c-1f45-4222-8d43-39b4f2c56e5f)"><path d="M96.079 35.03c-.357-.788-.693-2.588-1.735-2.743-.63-.094-1.296.366-1.848.635l-4.233 2.066-9.88 4.823 8.596-8.126 3.269-3.09c.24-.227.531-.451.729-.718.666-.903-.492-1.893-1.099-2.442-.861-.78-1.615-1.281-2.567-.273l-.648.687-3.015 3.188-8.4 8.884c-.853.902-1.594 2.227-2.917 2.24-1.677.017-3.391-.194-5.037-.504-1.406-.265-2.605-.916-3.89-1.526a1105.65 1105.65 0 0 0-5.039-2.385c-3.494-1.639-6.813-2.877-10.755-3.011-2.623-.089-5.236.185-7.747.963-2.559.793-4.962 1.995-7.377 3.135-1.416-3.943-3.871-7.469-6.652-10.57-.631 2.084-1.063 4.225-1.352 6.382-4.005-1.679-8.279-2.598-12.569-3.176 1.603 3.822 3.505 7.542 5.996 10.867-3.611.35-7.215.811-10.814 1.266-.374.047-.749.111-1.125.131-.215.011-.98-.087-.97.155.417 9.911 5 27.529 26.926 33.747 0 1.198.037 2.152.053 3.365h30.075c-.015-1.49-.02-2.374-.02-3.335C85.667 69 88.834 49.417 88.93 42.206c.008-.619-4.236-.815-4.859-.894 2.318-.976 4.638-1.95 6.956-2.925l3.005-1.264c.856-.36 2.626-.809 2.049-2.091.13.29.346.765-.002-.002zm-57.9 1.327c4.595-2.169 10.422-2.241 15.201-.618 2.801.952 5.461 2.456 8.132 3.717l8.492 4.009c-.55.231-1.219.131-1.798.13-.953-.001-1.912.081-2.864.12a452.652 452.652 0 0 1-18.143.376 444.378 444.378 0 0 1-23.964-.624c4.989-2.354 9.955-4.755 14.944-7.11zm-9.798.732l.004.003a.014.014 0 0 1-.004-.003c-.001-.001-.001-.001 0 0 .04.031.03.023 0 0zm-1.53-1.175l.03.023.741.569-.291-.223a100.24 100.24 0 0 1-.48-.369zm-.054-.041l-.007-.005-.034-.026.041.031zm-11.579-3.87c4.617.901 9.392 2.193 13.184 5.103a27.4 27.4 0 0 1 1.283 1.049l-4.944 2.334c-.741.35-1.541.652-2.245 1.07-.172.102-.453.335-.669.305-.326-.33-.642-.671-.947-1.021-2.305-2.635-4.125-5.704-5.662-8.84zm71.494 12.306c-.643 7.034-3.359 13.892-8.13 19.15-4.72 5.203-11.121 8.634-17.847 10.477-.328.09-.697.079-.729.489-.008.103-.003.206-.007.309V77H34v-2.551c-.099-.208-.239-.368-.447-.432-5.476-1.679-10.664-3.843-15.086-7.58A32.083 32.083 0 0 1 9.6 54.319c-1.331-3.188-2.125-6.572-2.438-10.011a356.255 356.255 0 0 0 22.483 1.389c12.402.369 24.745.549 37.146-.033 6.649-.312 13.292-.738 19.921-1.355z"></path></g><!----></svg>